<svg width="79" height="78" viewBox="0 0 79 78" fill="none" xmlns="http://www.w3.org/2000/svg">
<path d="M25.0412 11.375C22.3487 11.375 20.166 13.5577 20.166 16.25C20.166 18.9423 22.3487 21.125 25.0412 21.125C27.7338 21.125 29.9165 18.9423 29.9165 16.25C29.9165 13.5577 27.7338 11.375 25.0412 11.375ZM15.291 16.25C15.291 10.8651 19.6564 6.5 25.0412 6.5C30.4261 6.5 34.7913 10.8651 34.7913 16.25C34.7913 21.6349 30.4261 26 25.0412 26C19.6564 26 15.291 21.6349 15.291 16.25ZM12.9115 29.25C9.73836 29.25 7.16602 31.8223 7.16602 34.9954V36.1634C7.16598 36.8404 7.16582 40.742 9.44381 44.5338C11.2209 47.4916 14.2398 50.1478 19.1106 51.3383C19.7796 49.5537 20.9992 48.0386 22.5626 46.9989C17.3501 46.4412 14.8869 44.1272 13.6226 42.0231C12.0495 39.4046 12.041 36.6174 12.041 36.1562V34.9954C12.041 34.5147 12.4308 34.125 12.9115 34.125H26.7666C26.9858 32.3668 27.5562 30.7177 28.4052 29.25H12.9115ZM50.9273 29.25C51.7765 30.7177 52.3465 32.3668 52.5659 34.125H66.4207C66.9013 34.125 67.291 34.5147 67.291 34.9954V36.1562C67.291 36.6174 67.2826 39.4046 65.7096 42.0231C64.4453 44.1272 61.9818 46.4412 56.7695 46.9989C58.3327 48.0386 59.5524 49.5537 60.2213 51.3383C65.0921 50.1478 68.111 47.4916 69.8881 44.5338C72.1663 40.742 72.166 36.8404 72.166 36.1634V34.9954C72.166 31.8223 69.5936 29.25 66.4207 29.25H50.9273ZM49.416 16.25C49.416 13.5577 51.5987 11.375 54.2913 11.375C56.984 11.375 59.1663 13.5577 59.1663 16.25C59.1663 18.9423 56.984 21.125 54.2913 21.125C51.5987 21.125 49.416 18.9423 49.416 16.25ZM54.2913 6.5C48.9064 6.5 44.541 10.8651 44.541 16.25C44.541 21.6349 48.9064 26 54.2913 26C59.6759 26 64.0413 21.6349 64.0413 16.25C64.0413 10.8651 59.6759 6.5 54.2913 6.5ZM39.6663 30.875C36.9737 30.875 34.791 33.0577 34.791 35.75C34.791 38.4423 36.9737 40.625 39.6663 40.625C42.359 40.625 44.5413 38.4423 44.5413 35.75C44.5413 33.0577 42.359 30.875 39.6663 30.875ZM29.916 35.75C29.916 30.3651 34.2814 26 39.6663 26C45.0509 26 49.4163 30.3651 49.4163 35.75C49.4163 41.1349 45.0509 45.5 39.6663 45.5C34.2814 45.5 29.916 41.1349 29.916 35.75ZM21.791 54.4953C21.791 51.3224 24.3634 48.75 27.5365 48.75H51.7957C54.9686 48.75 57.541 51.3224 57.541 54.4953V55.6634C57.541 56.3404 57.5413 60.242 55.2631 64.0338C52.8539 68.0443 48.1615 71.5 39.666 71.5C31.1704 71.5 26.4783 68.0443 24.0688 64.0338C21.7908 60.242 21.791 56.3404 21.791 55.6634V54.4953ZM27.5365 53.625C27.0558 53.625 26.666 54.0147 26.666 54.4953V55.6562C26.666 56.1174 26.6745 58.9046 28.2476 61.5232C29.6975 63.9363 32.7241 66.625 39.666 66.625C46.608 66.625 49.6344 63.9363 51.0846 61.5232C52.6576 58.9046 52.666 56.1174 52.666 55.6562V54.4953C52.666 54.0147 52.2763 53.625 51.7957 53.625H27.5365Z" fill="#12B76A"/>
</svg>
